<svg width="1280" height="640" viewBox="0 0 1280 640" xmlns="http://www.w3.org/2000/svg">

<defs>

<linearGradient id="bg" x1="0%" y1="0%" x2="100%" y2="100%">
<stop offset="0%" stop-color="#0D1117"/>
<stop offset="100%" stop-color="#111827"/>
</linearGradient>

<linearGradient id="line" x1="0%" y1="0%" x2="100%" y2="0%">
<stop offset="0%" stop-color="#7C3AED"/>
<stop offset="100%" stop-color="#00D4FF"/>
</linearGradient>

<filter id="glow">
<feGaussianBlur stdDeviation="4" result="blur"/>
<feMerge>
<feMergeNode in="blur"/>
<feMergeNode in="SourceGraphic"/>
</feMerge>
</filter>

</defs>

<rect width="1280" height="640" fill="url(#bg)"/>

<circle cx="220" cy="140" r="3" fill="#7C3AED"/>
<circle cx="330" cy="180" r="3" fill="#00D4FF"/>
<circle cx="460" cy="120" r="3" fill="#7C3AED"/>
<circle cx="600" cy="200" r="3" fill="#00D4FF"/>
<circle cx="770" cy="150" r="3" fill="#7C3AED"/>
<circle cx="940" cy="230" r="3" fill="#00D4FF"/>
<circle cx="1080" cy="160" r="3" fill="#7C3AED"/>

<line x1="220" y1="140" x2="330" y2="180" stroke="url(#line)" stroke-width="2"/>
<line x1="330" y1="180" x2="460" y2="120" stroke="url(#line)" stroke-width="2"/>
<line x1="460" y1="120" x2="600" y2="200" stroke="url(#line)" stroke-width="2"/>
<line x1="600" y1="200" x2="770" y2="150" stroke="url(#line)" stroke-width="2"/>
<line x1="770" y1="150" x2="940" y2="230" stroke="url(#line)" stroke-width="2"/>
<line x1="940" y1="230" x2="1080" y2="160" stroke="url(#line)" stroke-width="2"/>

<text
x="90"
y="320"
font-size="72"
font-family="Segoe UI"
font-weight="700"
fill="white">

JASHWANTH NAIK

</text>

<text
x="92"
y="380"
font-size="30"
font-family="Segoe UI"
fill="#00D4FF">

AI Engineer • Full Stack Developer • Creative Technologist

</text>

<text
x="92"
y="445"
font-size="22"
font-family="Segoe UI"
fill="#A1A1AA">

Building intelligent software, crafting digital experiences,
and turning ideas into impactful products.

</text>

<text
x="1045"
y="520"
font-size="150"
font-family="Segoe UI"
font-weight="700"
fill="none"
stroke="#7C3AED"
stroke-width="3"
filter="url(#glow)">

JN

</text>

</svg>
